<svg xmlns="http://www.w3.org/2000/svg" xmlns:xlink="http://www.w3.org/1999/xlink" width="289.175" height="90.400" viewBox="-28.600 -16.000 289.175 90.400" font-family="ui-monospace, SFMono-Regular, Menlo, Consolas, monospace" font-size="10">
  <title>phases</title>
  <rect x="-28.600" y="-16.000" width="289.175" height="90.400" fill="#FFFFFF"/>
  <g>
    <line x1="0.000" y1="0.000" x2="213.375" y2="0.000" fill="none" stroke="#000000" stroke-width="1"/>
    <text x="-13.300" y="3.500" text-anchor="middle" fill="#000000">|x&gt;</text>
    <text x="235.975" y="3.500" text-anchor="middle" fill="#000000">QFT(x)</text>
    <line x1="0.000" y1="28.450" x2="213.375" y2="28.450" fill="none" stroke="#000000" stroke-width="1"/>
    <text x="-13.300" y="31.950" text-anchor="middle" fill="#000000">|x&gt;</text>
    <text x="235.975" y="31.950" text-anchor="middle" fill="#000000">QFT(x)</text>
    <line x1="0.000" y1="56.900" x2="213.375" y2="56.900" fill="none" stroke="#000000" stroke-width="1"/>
    <text x="-13.300" y="60.400" text-anchor="middle" fill="#000000">|x&gt;</text>
    <text x="235.975" y="60.400" text-anchor="middle" fill="#000000">QFT(x)</text>
    <rect x="32.675" y="-10.000" width="20.000" height="20.000" fill="#FFFFFF" stroke="#000000" stroke-width="1"/>
    <text x="42.675" y="3.500" text-anchor="middle" fill="#000000">H</text>
    <line x1="85.350" y1="0.000" x2="85.350" y2="28.450" fill="none" stroke="#000000" stroke-width="1"/>
    <circle cx="85.350" cy="28.450" r="2.200" fill="#000000" stroke="#000000" stroke-width="1"/>
    <circle cx="85.350" cy="0.000" r="10.000" fill="#FFFFFF" stroke="#000000" stroke-width="1"/>
    <text x="85.350" y="3.500" text-anchor="middle" fill="#000000">2</text>
    <line x1="128.025" y1="0.000" x2="128.025" y2="56.900" fill="none" stroke="#000000" stroke-width="1"/>
    <circle cx="128.025" cy="56.900" r="2.200" fill="#000000" stroke="#000000" stroke-width="1"/>
    <circle cx="128.025" cy="0.000" r="10.000" fill="#FFFFFF" stroke="#000000" stroke-width="1"/>
    <text x="128.025" y="3.500" text-anchor="middle" fill="#000000">3</text>
    <circle cx="170.700" cy="28.450" r="16.400" fill="#FFFFFF" stroke="#000000" stroke-width="1"/>
    <text x="170.700" y="31.950" text-anchor="middle" fill="#000000">pi/8</text>
  </g>
</svg>
