<svg xmlns="http://www.w3.org/2000/svg" xmlns:xlink="http://www.w3.org/1999/xlink" width="203.100" height="90.400" viewBox="-16.200 -16.000 203.100 90.400" font-family="ui-monospace, SFMono-Regular, Menlo, Consolas, monospace" font-size="10">
  <title>reordering</title>
  <rect x="-16.200" y="-16.000" width="203.100" height="90.400" fill="#FFFFFF"/>
  <g>
    <line x1="0.000" y1="0.000" x2="70.350" y2="0.000" fill="none" stroke="#000000" stroke-width="1"/>
    <path d="M 70.350 -0.000 C 85.350 -0.000 85.350 28.450 100.350 28.450" fill="none" stroke="#BF0040" stroke-width="1"/>
    <line x1="100.350" y1="28.450" x2="170.700" y2="28.450" fill="none" stroke="#000000" stroke-width="1"/>
    <text x="-7.100" y="3.500" text-anchor="middle" fill="#000000">a</text>
    <text x="177.800" y="31.950" text-anchor="middle" fill="#000000">a</text>
    <line x1="0.000" y1="28.450" x2="70.350" y2="28.450" fill="none" stroke="#000000" stroke-width="1"/>
    <path d="M 70.350 28.450 C 85.350 28.450 85.350 56.900 100.350 56.900" fill="none" stroke="#BF0040" stroke-width="1"/>
    <line x1="100.350" y1="56.900" x2="170.700" y2="56.900" fill="none" stroke="#000000" stroke-width="1"/>
    <text x="-7.100" y="31.950" text-anchor="middle" fill="#000000">b</text>
    <text x="177.800" y="60.400" text-anchor="middle" fill="#000000">b</text>
    <line x1="0.000" y1="56.900" x2="70.350" y2="56.900" fill="none" stroke="#000000" stroke-width="1"/>
    <path d="M 70.350 56.900 C 85.350 56.900 85.350 -0.000 100.350 -0.000" fill="none" stroke="#BF0040" stroke-width="1"/>
    <line x1="100.350" y1="0.000" x2="170.700" y2="0.000" fill="none" stroke="#000000" stroke-width="1"/>
    <text x="-7.100" y="60.400" text-anchor="middle" fill="#000000">c</text>
    <text x="177.800" y="3.500" text-anchor="middle" fill="#000000">c</text>
    <rect x="32.675" y="-10.000" width="20.000" height="20.000" fill="#FFFFFF" stroke="#000000" stroke-width="1"/>
    <text x="42.675" y="3.500" text-anchor="middle" fill="#000000">H</text>
    <rect x="118.025" y="18.450" width="20.000" height="20.000" fill="#FFFFFF" stroke="#000000" stroke-width="1"/>
    <text x="128.025" y="31.950" text-anchor="middle" fill="#000000">X</text>
    <rect x="118.025" y="46.900" width="20.000" height="20.000" fill="#FFFFFF" stroke="#000000" stroke-width="1"/>
    <text x="128.025" y="60.400" text-anchor="middle" fill="#000000">Y</text>
    <rect x="118.025" y="-10.000" width="20.000" height="20.000" fill="#FFFFFF" stroke="#000000" stroke-width="1"/>
    <text x="128.025" y="3.500" text-anchor="middle" fill="#000000">Z</text>
  </g>
</svg>
