<svg xmlns="http://www.w3.org/2000/svg" xmlns:xlink="http://www.w3.org/1999/xlink" width="205.300" height="118.850" viewBox="-28.600 -16.000 205.300 118.850" font-family="ui-monospace, SFMono-Regular, Menlo, Consolas, monospace" font-size="10">
  <title>parallel_layer</title>
  <rect x="-28.600" y="-16.000" width="205.300" height="118.850" fill="#FFFFFF"/>
  <g>
    <line x1="0.000" y1="0.000" x2="170.700" y2="0.000" fill="none" stroke="#000000" stroke-width="1"/>
    <text x="-13.300" y="3.500" text-anchor="middle" fill="#000000">|0&gt;</text>
    <line x1="0.000" y1="28.450" x2="170.700" y2="28.450" fill="none" stroke="#000000" stroke-width="1"/>
    <text x="-13.300" y="31.950" text-anchor="middle" fill="#000000">|0&gt;</text>
    <line x1="0.000" y1="56.900" x2="170.700" y2="56.900" fill="none" stroke="#000000" stroke-width="1"/>
    <text x="-13.300" y="60.400" text-anchor="middle" fill="#000000">|0&gt;</text>
    <line x1="0.000" y1="85.350" x2="170.700" y2="85.350" fill="none" stroke="#000000" stroke-width="1"/>
    <text x="-13.300" y="88.850" text-anchor="middle" fill="#000000">|0&gt;</text>
    <rect x="32.675" y="-10.000" width="20.000" height="20.000" fill="#FFFFFF" stroke="#000000" stroke-width="1"/>
    <text x="42.675" y="3.500" text-anchor="middle" fill="#000000">H</text>
    <rect x="75.350" y="18.450" width="20.000" height="20.000" fill="#FFFFFF" stroke="#000000" stroke-width="1"/>
    <text x="85.350" y="31.950" text-anchor="middle" fill="#000000">X</text>
    <rect x="75.350" y="46.900" width="20.000" height="20.000" fill="#FFFFFF" stroke="#000000" stroke-width="1"/>
    <text x="85.350" y="60.400" text-anchor="middle" fill="#000000">Y</text>
    <rect x="75.350" y="75.350" width="20.000" height="20.000" fill="#FFFFFF" stroke="#000000" stroke-width="1"/>
    <text x="85.350" y="88.850" text-anchor="middle" fill="#000000">Z</text>
    <rect x="118.025" y="-10.000" width="20.000" height="105.350" fill="#FFFFFF" stroke="#000000" stroke-width="1"/>
    <text x="128.025" y="46.175" text-anchor="middle" fill="#000000">U</text>
  </g>
</svg>
