<svg xmlns="http://www.w3.org/2000/svg" xmlns:xlink="http://www.w3.org/1999/xlink" width="250.690" height="123.167" viewBox="-28.600 -19.000 227.900 111.970" font-family="ui-monospace, SFMono-Regular, Menlo, Consolas, monospace" font-size="10">
  <title>tuned_layout</title>
  <rect x="-28.600" y="-19.000" width="227.900" height="111.970" fill="#F7F8FC"/>
  <g>
    <line x1="0.000" y1="0.000" x2="170.700" y2="0.000" fill="none" stroke="#1F4E79" stroke-width="1"/>
    <text x="-13.300" y="3.500" text-anchor="middle" fill="#000000">|0&gt;</text>
    <text x="184.000" y="3.500" text-anchor="middle" fill="#000000">out</text>
    <line x1="0.000" y1="36.985" x2="170.700" y2="36.985" fill="none" stroke="#1F4E79" stroke-width="1"/>
    <text x="-13.300" y="40.485" text-anchor="middle" fill="#000000">|0&gt;</text>
    <text x="184.000" y="40.485" text-anchor="middle" fill="#000000">out</text>
    <line x1="0.000" y1="73.970" x2="66.573" y2="73.970" fill="none" stroke="#1F4E79" stroke-width="1"/>
    <line x1="66.573" y1="74.966" x2="170.700" y2="74.966" fill="none" stroke="#1F4E79" stroke-width="1"/>
    <line x1="66.573" y1="72.974" x2="170.700" y2="72.974" fill="none" stroke="#1F4E79" stroke-width="1"/>
    <text x="-13.300" y="77.470" text-anchor="middle" fill="#000000">|0&gt;</text>
    <text x="184.000" y="77.470" text-anchor="middle" fill="#000000">out</text>
    <rect x="43.900" y="-13.000" width="26.000" height="26.000" fill="#FFFFFF" stroke="#000000" stroke-width="1"/>
    <text x="56.900" y="3.500" text-anchor="middle" fill="#000000">H</text>
    <line x1="113.800" y1="0.000" x2="113.800" y2="36.985" fill="none" stroke="#000000" stroke-width="1"/>
    <circle cx="113.800" cy="0.000" r="2.200" fill="#000000" stroke="#000000" stroke-width="1"/>
    <circle cx="113.800" cy="36.985" r="4.000" fill="#FFFFFF" stroke="#000000" stroke-width="1"/>
    <line x1="109.817" y1="36.985" x2="117.783" y2="36.985" fill="none" stroke="#000000" stroke-width="1"/>
    <line x1="113.800" y1="40.968" x2="113.800" y2="33.002" fill="none" stroke="#000000" stroke-width="1"/>
    <rect x="43.900" y="60.970" width="26.000" height="26.000" fill="#FFFFFF" stroke="#000000" stroke-width="1"/>
    <path d="M 50.641 76.815 A 6.259 6.259 0 0 1 63.159 76.815" fill="none" stroke="#000000" stroke-width="1"/>
    <line x1="56.900" y1="76.815" x2="61.737" y2="70.556" fill="none" stroke="#000000" stroke-width="1"/>
    <line x1="61.737" y1="70.556" x2="61.237" y2="72.776" fill="none" stroke="#000000" stroke-width="1"/>
    <line x1="61.737" y1="70.556" x2="59.714" y2="71.599" fill="none" stroke="#000000" stroke-width="1"/>
  </g>
</svg>
